# xmcd CD database file
#
# Track frame offsets:
#	150
#	24248
#	43287
#	58838
#	83571
#	100998
#	118583
#	149255
#	164133
#	186824
#
# Disc length: 2744 seconds
#
# Revision: 0
# Processed by: cddbd v1.4PL0 Copyright (c) Steve Scherf et al.
# Submitted via: CDex 1.40Beta8
#
DISCID=890ab60a
DTITLE=Nightshift - Bullit From A Gun
DYEAR=1900
DGENRE=Blues
TTITLE0=Jump Up Mary
TTITLE1=Wild Man Out Of Me
TTITLE2=Eyes On The Prize
TTITLE3=Lookin FIr The Door
TTITLE4=People Hold On
TTITLE5=Bullit From A Gun
TTITLE6=What Remains Is A Whisper
TTITLE7=By The Book
TTITLE8=What's The Measure Of A MAn
TTITLE9=Complication
EXTD=ID3G: 0
EXTT0=
EXTT1=
EXTT2=
EXTT3=
EXTT4=
EXTT5=
EXTT6=
EXTT7=
EXTT8=
EXTT9=
PLAYORDER=
